<?xml version="1.0" encoding="iso-8859-1"?>
<!-- Generator: Adobe Illustrator 19.0.0, SVG Export Plug-In . SVG Version: 6.00 Build 0)  -->
<svg xmlns="http://www.w3.org/2000/svg" xmlns:xlink="http://www.w3.org/1999/xlink" version="1.1" id="Layer_1" x="0px" y="0px" viewBox="0 0 512.002 512.002" style="enable-background:new 0 0 512.002 512.002;" xml:space="preserve">
<g>
	<path style="fill:#C7C5CC;" d="M421.941,168.244v127.931c0,12.861-8.011,24.362-20.099,28.797   c-29.812,10.917-88.457,29.262-145.846,29.262c-27.422,0-54.415-4.177-78.193-9.748c-12.843-3.008-24.74-6.413-35.245-9.782   c-10.367-3.301-19.377-6.585-26.631-9.387c-11.828-4.59-19.651-15.938-19.651-28.626V170.289l159.72,52.833L421.941,168.244z"/>
	<polygon style="fill:#C7C5CC;" points="256,17.358 9.254,98.973 256,180.588 502.746,98.973  "/>
</g>
<polygon style="fill:#ADACB2;" points="502.746,98.968 255.997,180.593 9.259,98.968 57.745,82.93 255.997,148.516 454.26,82.93 "/>
<polygon style="fill:#0087FF;" points="502.746,98.968 502.746,141.508 255.997,223.121 9.259,141.508 9.259,98.968   255.997,180.593 "/>
<polygon style="fill:#00A5FF;" points="502.746,98.968 502.746,141.508 255.997,223.121 255.997,180.593 "/>
<path style="fill:#ADACB2;" d="M255.997,223.123L96.276,170.29v40.283l46.283,15.31v108.822c10.504,3.37,22.403,6.774,35.245,9.782  V237.54l78.193,25.865l165.944-54.879v-40.283L255.997,223.123z"/>
<path style="fill:#00A5FF;" d="M107.933,414.266c0-19.465,15.78-35.245,35.245-35.245s35.245,15.78,35.245,35.245H107.933z"/>
<polygon style="fill:#FFDF46;" points="195.615,494.641 90.74,494.641 107.933,414.266 178.423,414.266 "/>
<path d="M511.894,97.647c-0.505-3.493-3.044-6.444-6.402-7.513L258.906,8.573c-1.887-0.624-3.925-0.624-5.812,0L111.99,55.245  c-4.851,1.604-7.484,6.839-5.879,11.69c1.605,4.849,6.835,7.485,11.691,5.879L256,27.104l217.281,71.868l-42.253,13.977  c-4.851,1.605-7.484,6.839-5.879,11.69c1.285,3.887,4.901,6.35,8.783,6.35c0.962,0,1.942-0.152,2.907-0.47l56.652-18.739v23.045  l-228.24,75.494v-23.045l140.525-46.479c4.851-1.605,7.484-6.84,5.88-11.691c-1.606-4.85-6.835-7.479-11.691-5.88L256,170.841  l-85.92-28.419l36.219-13.512c4.788-1.787,7.221-7.116,5.435-11.903c-1.787-4.791-7.118-7.223-11.903-5.437l-57.816,21.569  L38.719,98.973l45.01-14.888c4.851-1.604,7.485-6.839,5.88-11.69c-1.605-4.85-6.845-7.487-11.69-5.879L6.51,90.133  C2.708,91.344,0,94.965,0,98.973v42.538c0,3.99,2.559,7.532,6.347,8.784l80.676,26.685v119.697c0,16.61,10.031,31.233,25.557,37.253  c5.794,2.247,12.764,4.803,20.66,7.45v29.521c-19.417,4.449-34.022,21.629-34.531,42.257l-17.016,79.55  c-0.584,2.731,0.097,5.581,1.854,7.753c1.756,2.172,4.401,3.435,7.195,3.435h32.85c0.006,0,0.014,0.001,0.02,0.001  c0.008,0,0.017-0.001,0.026-0.001h39.085c0.008,0,0.017,0.001,0.026,0.001c0.006,0,0.014-0.001,0.02-0.001h32.851  c2.794,0,5.438-1.262,7.195-3.435c1.756-2.172,2.438-5.022,1.854-7.753l-17.016-79.55c-0.52-21.111-15.805-38.617-35.903-42.553  v-23.428c29.17,8.5,66.296,16.311,104.256,16.311c58.791,0,118.608-18.696,149.033-29.841c15.647-5.73,26.16-20.793,26.16-37.478  v-54.972c0-5.111-4.142-9.254-9.254-9.254s-9.254,4.142-9.254,9.254v18.865c0,8.952-5.634,17.031-14.019,20.103  c-29.273,10.723-86.734,28.712-142.668,28.712c-5.111,0-9.254,4.142-9.254,9.254s4.143,9.254,9.254,9.254  c58.791,0,118.608-18.696,149.033-29.841c2.72-0.996,5.273-2.29,7.654-3.81v2.439c0,8.952-5.634,17.031-14.019,20.103  c-29.273,10.722-86.734,28.712-142.668,28.712c-38.185,0-75.694-8.414-104.256-17.104v-16.783  c19.16,5.591,41.28,10.731,64.797,13.699c0.393,0.049,0.784,0.073,1.17,0.073c4.594,0,8.579-3.419,9.169-8.095  c0.639-5.071-2.951-9.699-8.022-10.34c-24.589-3.102-47.618-8.707-67.114-14.648v-93.399l101.35,33.523  c0.013,0.004,0.026,0.005,0.04,0.009c0.416,0.135,0.844,0.237,1.283,0.313c0.087,0.015,0.172,0.027,0.259,0.04  c0.434,0.063,0.872,0.106,1.323,0.106s0.89-0.043,1.323-0.106c0.087-0.013,0.173-0.024,0.26-0.04  c0.439-0.075,0.867-0.178,1.283-0.312c0.014-0.004,0.027-0.005,0.041-0.01l153.782-50.866v26.222c0,5.111,4.142,9.254,9.254,9.254  s9.254-4.142,9.254-9.254v-32.344l74.458-24.628c3.788-1.253,6.347-4.794,6.347-8.784V98.973  C512,98.522,511.956,98.081,511.894,97.647C511.882,97.558,511.956,98.081,511.894,97.647z M170.943,485.389l-2.703-22.012  c-0.623-5.072-5.237-8.682-10.311-8.057c-5.072,0.623-8.68,5.24-8.056,10.312l2.426,19.757h-18.243l2.426-19.757  c0.624-5.072-2.984-9.689-8.056-10.312c-5.069-0.615-9.688,2.985-10.312,8.057l-2.703,22.012h-13.229l13.235-61.869h55.524  l13.235,61.869H170.943z M167.468,405.013h-48.58c3.737-9.777,13.216-16.739,24.29-16.739  C154.251,388.274,163.731,395.235,167.468,405.013z M18.506,111.78l114.732,37.949v23.045l-114.732-37.95V111.78z M133.238,321.821  c-5.195-1.82-9.888-3.565-13.969-5.147c-8.347-3.236-13.74-11.085-13.74-19.996v-2.436c2.201,1.392,4.544,2.609,7.05,3.58  c6.08,2.357,13.016,4.9,20.66,7.469V321.821z M133.238,285.721c-5.051-1.773-9.728-3.512-13.969-5.157  c-8.347-3.236-13.74-11.085-13.74-19.996v-77.468l27.71,9.166C133.238,192.267,133.238,285.721,133.238,285.721z M151.744,155.85  l95.002,31.423v23.045l-95.002-31.423V155.85z"/>
<g>
</g>
<g>
</g>
<g>
</g>
<g>
</g>
<g>
</g>
<g>
</g>
<g>
</g>
<g>
</g>
<g>
</g>
<g>
</g>
<g>
</g>
<g>
</g>
<g>
</g>
<g>
</g>
<g>
</g>
</svg>
